<svg width="23" height="27" viewBox="0 0 23 27" fill="none" xmlns="http://www.w3.org/2000/svg">
<path d="M22 11.2273C22 19.1818 11.5 26 11.5 26C11.5 26 1 19.1818 1 11.2273C1 8.51483 2.10625 5.91348 4.07538 3.9955C6.04451 2.07751 8.71523 1 11.5 1C14.2848 1 16.9555 2.07751 18.9246 3.9955C20.8938 5.91348 22 8.51483 22 11.2273Z" stroke="#134870" stroke-opacity="0.7" stroke-width="2" stroke-linecap="round" stroke-linejoin="round"/>
<path d="M11.5 14.6365C13.433 14.6365 15 13.1102 15 11.2275C15 9.34466 13.433 7.81836 11.5 7.81836C9.567 7.81836 8 9.34466 8 11.2275C8 13.1102 9.567 14.6365 11.5 14.6365Z" stroke="#134870" stroke-opacity="0.7" stroke-width="2" stroke-linecap="round" stroke-linejoin="round"/>
</svg>
