<svg width="114" height="117" viewBox="0 0 114 117" fill="none" xmlns="http://www.w3.org/2000/svg">
<path d="M34.7583 39.2682L35.5034 39.2099C35.7732 39.1828 36.0313 39.0943 36.2539 38.9527L36.2486 38.9576C36.9618 41.1995 37.8347 43.558 38.9258 46.028C40.3256 49.2599 41.7042 51.9143 43.2477 54.4766L43.0348 54.0883C42.907 55.8547 42.7527 57.6696 42.5504 59.4263C42.4618 60.4627 42.2312 61.4849 41.8638 62.469L41.8904 62.3816C41.8266 62.4059 41.7361 72.4753 41.7361 72.4753C41.7381 75.5996 42.893 78.6325 45.0151 81.0858C47.1372 83.539 50.1029 85.2699 53.435 85.9998L53.5414 86.0192C53.6894 85.6689 53.95 85.3674 54.289 85.1544C54.6281 84.9414 55.0298 84.8267 55.4416 84.8254H58.4967C58.9047 84.8304 59.302 84.945 59.639 85.1547C59.976 85.3644 60.2378 85.66 60.3915 86.0046L60.3968 86.0192C63.7571 85.311 66.7568 83.5893 68.91 81.1329C71.0632 78.6766 72.2438 75.6294 72.2607 72.485V72.4801C72.2607 72.4801 72.0744 62.4544 71.9786 62.3865C71.6614 61.4485 71.444 60.4848 71.3293 59.5088L71.324 59.436C71.1377 57.6696 71.0153 55.8984 70.8396 54.098C72.1543 51.9337 73.5328 49.2842 74.7463 46.5521L74.9486 46.0377C76.0397 43.5677 76.886 41.2141 77.6258 38.9673C77.8445 39.1089 78.0991 39.1974 78.3656 39.2245H78.371L79.1214 39.2827C80.0263 39.3701 80.8246 38.6907 80.8992 37.6376L81.7082 28.2671V28.2573C81.7077 27.8803 81.5568 27.5162 81.2835 27.2332C81.0103 26.9501 80.6334 26.7674 80.2232 26.719H80.1221C80.8309 21.8396 80.3918 16.8784 78.834 12.1658L78.9032 12.4132C77.402 9.37408 75.1187 6.70996 72.2472 4.64697C69.3757 2.58398 66.0008 1.183 62.4087 0.562915L62.2704 0.543504C60.5288 0.225156 58.7606 0.0433246 56.9851 0H56.8733C55.016 0.0303251 53.166 0.222066 51.3486 0.57262L51.5402 0.543504C47.95 1.15107 44.5718 2.53388 41.6881 4.5762C38.8045 6.61853 36.4994 9.26092 34.9659 12.2822L34.9073 12.4132C33.3749 17.1078 32.9665 22.0477 33.7097 26.8986L33.6884 26.719C33.2772 26.7596 32.8967 26.937 32.6198 27.2172C32.3429 27.4974 32.189 27.8608 32.1875 28.2379V28.2719L32.9965 37.6425C33.071 38.7198 33.8801 39.3701 34.753 39.2827L34.7583 39.2682Z" fill="white"/>
<path d="M113.991 101.288C113.619 86.536 112.001 83.1973 111.128 80.936C110.782 80.0285 110.5 73.8947 99.3864 69.9154C92.5736 67.4697 83.7808 67.4211 76.3399 64.5532V72.5311C76.3322 76.621 74.7646 80.5811 71.9059 83.7329C69.0471 86.8847 65.0751 89.032 60.6704 89.8067L60.548 89.8261C60.4682 90.2566 60.2253 90.6478 59.8615 90.9316C59.4977 91.2154 59.0361 91.3737 58.5574 91.379H58.4616V97.3964C58.4616 100.22 59.6919 102.928 61.8819 104.925C64.0718 106.921 67.0421 108.043 70.1392 108.043C73.2363 108.043 76.2065 106.921 78.3965 104.925C80.5865 102.928 81.8168 100.22 81.8168 97.3964V93.1939C80.2093 92.979 78.744 92.2344 77.698 91.101C76.652 89.9677 76.0978 88.5241 76.1403 87.0433C76.1828 85.5626 76.8191 84.1474 77.9287 83.0655C79.0383 81.9836 80.5443 81.3099 82.1619 81.1719C83.7795 81.034 85.3964 81.4413 86.7069 82.3169C88.0173 83.1924 88.9304 84.4755 89.2733 85.9233C89.6163 87.3712 89.3654 88.8835 88.568 90.174C87.7707 91.4646 86.4823 92.444 84.9464 92.927L84.8985 92.9416V97.6244C84.8985 101.195 83.3429 104.619 80.574 107.143C77.8051 109.668 74.0497 111.086 70.1338 111.086C66.218 111.086 62.4626 109.668 59.6937 107.143C56.9247 104.619 55.3692 101.195 55.3692 97.6244V97.3818V97.3915V91.3208C54.9134 91.2924 54.4815 91.1247 54.1434 90.8446C53.8053 90.5645 53.5808 90.1885 53.5063 89.7776V89.7679C49.0968 89.0012 45.117 86.8603 42.2485 83.7122C39.3801 80.564 37.8017 76.6044 37.7836 72.5116V64.4707C30.3108 67.3969 21.4648 67.4551 14.6147 69.9057C3.46934 73.8801 3.21386 79.9994 2.87322 80.9214C2.02161 83.1925 0.382279 86.5166 0.00970301 101.279C-0.0541672 103.22 0.00970331 106.194 6.42866 108.795C20.4056 113.794 38.4117 115.347 56.1622 116.463H57.8654C75.6533 115.356 93.6327 113.808 107.599 108.795C113.991 106.209 114.05 103.254 113.991 101.293V101.288ZM35.8515 95.2709H29.2197V101.342H24.4826V95.2903H17.8508V90.9714H24.4826V84.9249H29.2197V90.9714H35.8515V95.2709Z" fill="white"/>
</svg>
