<svg width="35" height="35" viewBox="0 0 35 35" fill="none" xmlns="http://www.w3.org/2000/svg">
<circle cx="17.5" cy="17.5" r="17.5" fill="white"/>
<path d="M20.4668 18.1085C20.5853 18.1085 21.0296 18.317 21.7998 18.7339C22.57 19.1507 22.9779 19.4018 23.0234 19.4871C23.0417 19.5345 23.0508 19.6055 23.0508 19.7003C23.0508 20.0129 22.9733 20.373 22.8184 20.7804C22.6725 21.1499 22.349 21.4602 21.8477 21.7112C21.3464 21.9623 20.8815 22.0879 20.4531 22.0879C19.9336 22.0879 19.0677 21.7941 17.8555 21.2067C16.9622 20.7804 16.1875 20.2214 15.5312 19.5297C14.875 18.8381 14.2005 17.9617 13.5078 16.9005C12.8516 15.8867 12.528 14.9677 12.5371 14.1434V14.0297C12.5645 13.1675 12.9017 12.419 13.5488 11.7842C13.7676 11.5758 14.0046 11.4716 14.2598 11.4716C14.3145 11.4716 14.3965 11.4787 14.5059 11.4929C14.6152 11.5071 14.7018 11.5142 14.7656 11.5142C14.9388 11.5142 15.0596 11.545 15.1279 11.6066C15.1963 11.6682 15.2669 11.7984 15.3398 11.9974C15.4128 12.1869 15.5632 12.6038 15.791 13.2481C16.0189 13.8923 16.1328 14.2476 16.1328 14.314C16.1328 14.5129 15.9756 14.7853 15.6611 15.1311C15.3467 15.477 15.1895 15.6972 15.1895 15.792C15.1895 15.8583 15.2122 15.9294 15.2578 16.0052C15.5677 16.6968 16.0326 17.3458 16.6523 17.9522C17.1628 18.4543 17.8509 18.9328 18.7168 19.3876C18.8262 19.4539 18.9264 19.4871 19.0176 19.4871C19.1543 19.4871 19.4004 19.2573 19.7559 18.7978C20.1113 18.3383 20.3483 18.1085 20.4668 18.1085ZM17.6914 25.6408C18.849 25.6408 19.9587 25.404 21.0205 24.9302C22.0824 24.4565 22.9961 23.8217 23.7617 23.0258C24.5273 22.23 25.138 21.2801 25.5938 20.1764C26.0495 19.0726 26.2773 17.919 26.2773 16.7158C26.2773 15.5125 26.0495 14.359 25.5938 13.2552C25.138 12.1514 24.5273 11.2016 23.7617 10.4057C22.9961 9.60982 22.0824 8.97502 21.0205 8.50129C19.9587 8.02756 18.849 7.7907 17.6914 7.7907C16.5339 7.7907 15.4242 8.02756 14.3623 8.50129C13.3005 8.97502 12.3867 9.60982 11.6211 10.4057C10.8555 11.2016 10.2448 12.1514 9.78906 13.2552C9.33333 14.359 9.10547 15.5125 9.10547 16.7158C9.10547 18.6391 9.65234 20.3824 10.7461 21.9457L9.66602 25.2571L12.9746 24.1628C14.4147 25.1481 15.987 25.6408 17.6914 25.6408ZM17.6914 6C19.0859 6 20.4189 6.28424 21.6904 6.85271C22.9619 7.42119 24.0579 8.18389 24.9785 9.14083C25.8991 10.0978 26.6328 11.2371 27.1797 12.5588C27.7266 13.8805 28 15.2662 28 16.7158C28 18.1654 27.7266 19.551 27.1797 20.8727C26.6328 22.1944 25.8991 23.3338 24.9785 24.2907C24.0579 25.2476 22.9619 26.0103 21.6904 26.5788C20.4189 27.1473 19.0859 27.4315 17.6914 27.4315C15.9141 27.4315 14.2507 26.9862 12.7012 26.0956L7 28L8.85938 22.2442C7.875 20.5577 7.38281 18.7149 7.38281 16.7158C7.38281 15.2662 7.65625 13.8805 8.20312 12.5588C8.75 11.2371 9.48372 10.0978 10.4043 9.14083C11.3249 8.18389 12.4209 7.42119 13.6924 6.85271C14.9639 6.28424 16.2969 6 17.6914 6Z" fill="#134870"/>
</svg>
