<svg width="35" height="35" viewBox="0 0 35 35" fill="none" xmlns="http://www.w3.org/2000/svg">
<circle cx="17.5" cy="17.5" r="17.5" fill="white"/>
<path d="M28 9.01006C27.0424 9.68553 25.9821 10.2022 24.86 10.5401C24.2577 9.84757 23.4573 9.35675 22.567 9.13398C21.6767 8.91122 20.7395 8.96725 19.8821 9.29451C19.0247 9.62177 18.2884 10.2045 17.773 10.9638C17.2575 11.7231 16.9877 12.6224 17 13.5401V14.5401C15.2426 14.5856 13.5013 14.1959 11.931 13.4055C10.3607 12.6151 9.01032 11.4487 8 10.0101C8 10.0101 4 19.0101 13 23.0101C10.9405 24.408 8.48716 25.109 6 25.0101C15 30.0101 26 25.0101 26 13.5101C25.9991 13.2315 25.9723 12.9537 25.92 12.6801C26.9406 11.6735 27.6608 10.4028 28 9.01006V9.01006Z" stroke="#134870" stroke-width="2" stroke-linecap="round" stroke-linejoin="round"/>
</svg>
